<svg width="40" height="40" viewBox="0 0 40 40" fill="none" xmlns="http://www.w3.org/2000/svg">
<g id="vuesax/bold/additem">
<g id="additem">
<path id="Vector" d="M22.3833 9.04999V11.2833C18.0166 11.6333 15.5333 14.4333 15.5333 19.05V26.6667H9.04992C5.23325 26.6667 3.33325 24.7667 3.33325 20.95V9.04999C3.33325 5.23333 5.23325 3.33333 9.04992 3.33333H16.6666C20.4833 3.33333 22.3833 5.23333 22.3833 9.04999Z" fill="white"/>
<path id="Vector_2" d="M30.95 13.3333H23.3334C19.5167 13.3333 17.6167 15.2333 17.6167 19.05V30.95C17.6167 34.7667 19.5167 36.6667 23.3334 36.6667H30.95C34.7667 36.6667 36.6667 34.7667 36.6667 30.95V19.05C36.6667 15.2333 34.7667 13.3333 30.95 13.3333ZM30.2167 26.25H28.75V27.7167C28.75 28.4 28.1834 28.9667 27.5 28.9667C26.8167 28.9667 26.25 28.4 26.25 27.7167V26.25H24.7834C24.1 26.25 23.5334 25.6833 23.5334 25C23.5334 24.3167 24.1 23.75 24.7834 23.75H26.25V22.2833C26.25 21.6 26.8167 21.0333 27.5 21.0333C28.1834 21.0333 28.75 21.6 28.75 22.2833V23.75H30.2167C30.9 23.75 31.4667 24.3167 31.4667 25C31.4667 25.6833 30.9 26.25 30.2167 26.25Z" fill="white"/>
</g>
</g>
</svg>
