<svg width="40" height="40" viewBox="0 0 40 40" fill="none" xmlns="http://www.w3.org/2000/svg">
<g id="vuesax/bold/box">
<path id="Vector" d="M33.6834 13.0333L20.8501 20.4667C20.3334 20.7667 19.6834 20.7667 19.1501 20.4667L6.31678 13.0333C5.40011 12.5 5.16678 11.25 5.86678 10.4667C6.35011 9.91666 6.90011 9.46666 7.48345 9.14999L16.5168 4.14999C18.4501 3.06666 21.5834 3.06666 23.5168 4.14999L32.5501 9.14999C33.1334 9.46666 33.6834 9.93333 34.1668 10.4667C34.8334 11.25 34.6001 12.5 33.6834 13.0333Z" fill="white"/>
<path id="Vector_2" d="M19.0499 23.5667V34.9333C19.0499 36.2 17.7666 37.0333 16.6332 36.4833C13.1999 34.8 7.41655 31.65 7.41655 31.65C5.38322 30.5 3.71655 27.6 3.71655 25.2167V16.6167C3.71655 15.3 5.09989 14.4667 6.23322 15.1167L18.2166 22.0667C18.7166 22.3833 19.0499 22.95 19.0499 23.5667Z" fill="white"/>
<path id="Vector_3" d="M20.95 23.5667V34.9333C20.95 36.2 22.2333 37.0333 23.3666 36.4833C26.8 34.8 32.5833 31.65 32.5833 31.65C34.6166 30.5 36.2833 27.6 36.2833 25.2167V16.6167C36.2833 15.3 34.9 14.4667 33.7666 15.1167L21.7833 22.0667C21.2833 22.3833 20.95 22.95 20.95 23.5667Z" fill="white"/>
</g>
</svg>
