<svg width="40" height="40" viewBox="0 0 40 40" fill="none" xmlns="http://www.w3.org/2000/svg">
<g id="vuesax/bold/building">
<g id="building">
<path id="Vector" d="M17.9168 7.73333L10.5334 4.08333C6.55011 2.13333 3.28345 4.11666 3.28345 8.48333V33.2167C3.28345 35.1167 4.86678 36.6667 6.80011 36.6667H19.1668C20.0834 36.6667 20.8334 35.9167 20.8334 35V12.35C20.8334 10.6 19.5168 8.51666 17.9168 7.73333ZM14.9501 22.9167H9.16678C8.48345 22.9167 7.91678 22.35 7.91678 21.6667C7.91678 20.9833 8.48345 20.4167 9.16678 20.4167H14.9501C15.6334 20.4167 16.2001 20.9833 16.2001 21.6667C16.2001 22.35 15.6501 22.9167 14.9501 22.9167ZM14.9501 16.25H9.16678C8.48345 16.25 7.91678 15.6833 7.91678 15C7.91678 14.3167 8.48345 13.75 9.16678 13.75H14.9501C15.6334 13.75 16.2001 14.3167 16.2001 15C16.2001 15.6833 15.6501 16.25 14.9501 16.25Z" fill="white"/>
<path id="Vector_2" d="M36.6666 30.0667V32.5C36.6666 34.8 34.7999 36.6667 32.4999 36.6667H24.9499C24.0499 36.6667 23.3333 35.95 23.3333 35.05V31.45C25.1166 31.6667 26.9999 31.15 28.3499 30.0667C29.4833 30.9833 30.9333 31.5333 32.5166 31.5333C34.0666 31.5333 35.5166 30.9833 36.6666 30.0667Z" fill="white"/>
<path id="Vector_3" d="M36.6666 25.0833V25.1C36.5333 27.2833 34.7499 29.0333 32.5166 29.0333C30.1999 29.0333 28.3499 27.15 28.3499 24.8667C28.3499 27.4167 25.9999 29.4667 23.3333 28.95V20C23.3333 18.9333 24.3166 18.1333 25.3666 18.3667L28.3499 19.0333L29.1499 19.2167L32.5499 19.9833C33.3666 20.15 34.1166 20.4333 34.7666 20.85C34.7666 20.8667 34.7833 20.8667 34.7833 20.8667C34.9499 20.9833 35.1166 21.1167 35.2666 21.2667C36.0333 22.0333 36.5333 23.15 36.6499 24.7833C36.6499 24.8833 36.6666 24.9833 36.6666 25.0833Z" fill="white"/>
</g>
</g>
</svg>
