<svg width="40" height="40" viewBox="0 0 40 40" fill="none" xmlns="http://www.w3.org/2000/svg">
<g id="vuesax/bold/chart-square">
<g id="chart-square">
<path id="Vector" d="M26.9833 3.33333H13.0166C6.94992 3.33333 3.33325 6.94999 3.33325 13.0167V26.9667C3.33325 33.05 6.94992 36.6667 13.0166 36.6667H26.9666C33.0333 36.6667 36.6499 33.05 36.6499 26.9833V13.0167C36.6666 6.94999 33.0499 3.33333 26.9833 3.33333ZM15.1833 28.1667C15.1833 28.6333 14.8166 29 14.3499 29H9.69992C9.23325 29 8.86659 28.6333 8.86659 28.1667V20.4667C8.86659 19.4167 9.71659 18.5667 10.7666 18.5667H14.3499C14.8166 18.5667 15.1833 18.9333 15.1833 19.4V28.1667ZM23.1499 28.1667C23.1499 28.6333 22.7833 29 22.3166 29H17.6666C17.1999 29 16.8333 28.6333 16.8333 28.1667V12.9C16.8333 11.85 17.6833 11 18.7333 11H21.2666C22.3166 11 23.1666 11.85 23.1666 12.9V28.1667H23.1499ZM31.1333 28.1667C31.1333 28.6333 30.7666 29 30.2999 29H25.6499C25.1833 29 24.8166 28.6333 24.8166 28.1667V22.25C24.8166 21.7833 25.1833 21.4167 25.6499 21.4167H29.2333C30.2833 21.4167 31.1333 22.2667 31.1333 23.3167V28.1667Z" fill="white"/>
</g>
</g>
</svg>
