<svg width="80" height="80" viewBox="0 0 80 80" fill="none" xmlns="http://www.w3.org/2000/svg">
<g id="vuesax/bold/data">
<g id="data">
<path id="Vector" d="M66.6667 47.5C70.8089 47.5 74.1667 44.1421 74.1667 40C74.1667 35.8579 70.8089 32.5 66.6667 32.5C62.5246 32.5 59.1667 35.8579 59.1667 40C59.1667 44.1421 62.5246 47.5 66.6667 47.5Z" fill="white"/>
<path id="Vector_2" d="M66.6667 20.8333C70.8089 20.8333 74.1667 17.4755 74.1667 13.3333C74.1667 9.1912 70.8089 5.83334 66.6667 5.83334C62.5246 5.83334 59.1667 9.1912 59.1667 13.3333C59.1667 17.4755 62.5246 20.8333 66.6667 20.8333Z" fill="white"/>
<path id="Vector_3" d="M66.6667 74.1667C70.8089 74.1667 74.1667 70.8088 74.1667 66.6667C74.1667 62.5245 70.8089 59.1667 66.6667 59.1667C62.5246 59.1667 59.1667 62.5245 59.1667 66.6667C59.1667 70.8088 62.5246 74.1667 66.6667 74.1667Z" fill="white"/>
<path id="Vector_4" d="M13.3333 47.5C17.4754 47.5 20.8333 44.1421 20.8333 40C20.8333 35.8579 17.4754 32.5 13.3333 32.5C9.19112 32.5 5.83325 35.8579 5.83325 40C5.83325 44.1421 9.19112 47.5 13.3333 47.5Z" fill="white"/>
<path id="Vector_5" d="M63.3334 42.5C64.7001 42.5 65.8334 41.3667 65.8334 40C65.8334 38.6333 64.7001 37.5 63.3334 37.5H39.1667V23.3333C39.1667 18.0667 41.4001 15.8333 46.6667 15.8333H63.3334C64.7001 15.8333 65.8334 14.7 65.8334 13.3333C65.8334 11.9667 64.7001 10.8333 63.3334 10.8333H46.6667C38.6001 10.8333 34.1667 15.2667 34.1667 23.3333V37.5H16.6667C15.3001 37.5 14.1667 38.6333 14.1667 40C14.1667 41.3667 15.3001 42.5 16.6667 42.5H34.1667V56.6667C34.1667 64.7333 38.6001 69.1667 46.6667 69.1667H63.3334C64.7001 69.1667 65.8334 68.0333 65.8334 66.6667C65.8334 65.3 64.7001 64.1667 63.3334 64.1667H46.6667C41.4001 64.1667 39.1667 61.9333 39.1667 56.6667V42.5H63.3334Z" fill="white"/>
</g>
</g>
</svg>
