<svg width="40" height="40" viewBox="0 0 40 40" fill="none" xmlns="http://www.w3.org/2000/svg">
<g id="vuesax/bold/favorite-chart">
<g id="favorite-chart">
<path id="Vector" d="M31.8667 24.9L32.4 25.9833C32.6667 26.5167 33.35 27.0167 33.9167 27.1167L34.6333 27.2333C36.8167 27.6 37.3167 29.2 35.7667 30.7667L35.1 31.4333C34.65 31.8833 34.4167 32.75 34.55 33.3833L34.6333 33.7833C35.2333 36.4167 33.8333 37.4333 31.55 36.05L31.0667 35.75C30.4833 35.4 29.5167 35.4 28.9334 35.75L28.45 36.05C26.15 37.4333 24.7667 36.4167 25.3667 33.7833L25.45 33.3833C25.5833 32.7667 25.35 31.8833 24.9 31.4333L24.2333 30.7667C22.6833 29.1833 23.1833 27.6 25.3667 27.2333L26.0833 27.1167C26.6667 27.0167 27.3333 26.5167 27.6 25.9833L28.1333 24.9C29.1667 22.8167 30.8333 22.8167 31.8667 24.9Z" fill="white"/>
<path id="Vector_2" d="M26.9833 3.33334H13.0166C6.94992 3.33334 3.33325 6.95 3.33325 13.0167V26.9833C3.33325 33.05 6.94992 36.6667 13.0166 36.6667H21.8166C22.3999 36.6667 22.8166 36.0667 22.7499 35.4833C22.6833 34.85 22.7166 34.1 22.9166 33.2333C22.9499 33.1167 22.9166 32.9833 22.8166 32.8833L22.4499 32.5167C21.0333 31.0833 20.5166 29.35 21.0166 27.7667C21.5333 26.2 22.9666 25.1 24.9499 24.7667L25.4499 24.6833L25.8999 23.7833C26.8166 21.9167 28.3166 20.8333 29.9999 20.8333C31.6833 20.8333 33.1833 21.9167 34.0999 23.7833L34.3499 24.3C34.4666 24.55 34.6999 24.7167 34.9666 24.7667C35.1166 24.8 35.2666 24.8333 35.4166 24.8667C35.9999 25.0167 36.6666 24.55 36.6666 23.9333V13.0167C36.6666 6.95 33.0499 3.33334 26.9833 3.33334ZM27.0999 14.9333L23.2499 19.9C22.7666 20.5167 22.0833 20.9167 21.2999 21C20.5333 21.1 19.7499 20.8833 19.1499 20.4L16.0999 18.0333C15.9833 17.9333 15.8499 17.9333 15.7833 17.95C15.7166 17.95 15.5999 17.9833 15.4999 18.1167L11.5333 23.2667C11.2833 23.5833 10.9166 23.75 10.5333 23.75C10.2666 23.75 9.99992 23.6667 9.76659 23.4833C9.21659 23.0667 9.11659 22.2833 9.53325 21.7333L13.4999 16.5833C13.9833 15.9667 14.6666 15.5667 15.4499 15.4667C16.2333 15.3667 16.9999 15.5833 17.6166 16.0667L20.6666 18.4667C20.7833 18.5667 20.8999 18.55 20.9833 18.55C21.0499 18.55 21.1666 18.5167 21.2666 18.3833L25.1166 13.4167C25.5333 12.8667 26.3166 12.7667 26.8666 13.2C27.4333 13.6167 27.5166 14.4 27.0999 14.9333Z" fill="white"/>
</g>
</g>
</svg>
