<svg width="579" height="509" viewBox="0 0 579 509" fill="none" xmlns="http://www.w3.org/2000/svg">
<path d="M-264.6 200.99L-265.336 200.551L-285 212.193L-284.263 212.631L-264.6 200.99ZM-211.487 169.573L-212.223 169.134L-264.628 200.127L-263.891 200.565L-211.487 169.573ZM-158.374 138.156L-159.11 137.718L-211.501 168.71L-210.764 169.149L-158.374 138.156ZM-105.261 106.74L-105.997 106.301L-158.402 137.294L-157.665 137.732L-105.261 106.74ZM-52.148 75.3233L-52.8846 74.8848L-105.275 105.877L-104.538 106.316L-52.148 75.3233ZM0.964905 43.9068L0.228363 43.4683L-52.1758 74.4605L-51.4393 74.899L0.964905 43.9068ZM54.0778 12.4902L53.3413 12.0517L0.937103 43.0439L1.67365 43.4824L54.0778 12.4902ZM74.4503 0.438499L73.7138 0L54.05 11.6274L54.7865 12.0659L74.4503 0.438499Z" fill="#9FE7C1"/>
<path d="M-208.582 233.92L-209.319 233.482L-228.983 245.123L-228.246 245.562L-208.582 233.92ZM-155.469 202.504L-156.206 202.065L-208.61 233.058L-207.874 233.496L-155.469 202.504ZM-102.357 171.087L-103.093 170.649L-155.483 201.641L-154.747 202.08L-102.357 171.087ZM-49.2436 139.671L-49.9801 139.232L-102.384 170.224L-101.648 170.663L-49.2436 139.671ZM3.86929 108.254L3.13278 107.816L-49.2575 138.808L-48.521 139.246L3.86929 108.254ZM56.9822 76.8377L56.2457 76.3992L3.84152 107.391L4.57805 107.83L56.9822 76.8377ZM110.095 45.4211L109.359 44.9826L56.9544 75.9748L57.691 76.4133L110.095 45.4211ZM130.468 33.3694L129.731 32.9309L110.067 44.5583L110.804 44.9968L130.468 33.3694Z" fill="#9FE7C1"/>
<path d="M-152.565 266.835L-153.301 266.397L-172.965 278.038L-172.229 278.477L-152.565 266.835ZM-99.4519 235.419L-100.188 234.98L-152.593 265.973L-151.856 266.411L-99.4519 235.419ZM-46.339 204.002L-47.0755 203.564L-99.4658 234.556L-98.7293 234.995L-46.339 204.002ZM6.77394 172.586L6.03743 172.147L-46.3668 203.14L-45.6302 203.578L6.77394 172.586ZM59.8869 141.169L59.1504 140.731L6.76004 171.723L7.49655 172.161L59.8869 141.169ZM113 109.753L112.263 109.314L59.8591 140.306L60.5956 140.745L113 109.753ZM166.113 78.3362L165.376 77.8977L112.972 108.89L113.709 109.328L166.113 78.3362ZM186.485 66.2844L185.749 65.8459L166.085 77.4733L166.821 77.9118L186.485 66.2844Z" fill="#9FE7C1"/>
<path d="M-96.5341 299.766L-97.2706 299.328L-116.934 310.969L-116.198 311.408L-96.5341 299.766ZM-43.4211 268.35L-44.1577 267.911L-96.5619 298.903L-95.8253 299.342L-43.4211 268.35ZM9.69179 236.933L8.95527 236.495L-43.435 267.487L-42.6985 267.925L9.69179 236.933ZM62.8047 205.516L62.0682 205.078L9.66397 236.07L10.4005 236.509L62.8047 205.516ZM115.918 174.1L115.181 173.661L62.7908 204.654L63.5273 205.092L115.918 174.1ZM169.031 142.683L168.294 142.245L115.89 173.237L116.626 173.676L169.031 142.683ZM222.143 111.267L221.407 110.828L169.003 141.821L169.739 142.259L222.143 111.267ZM242.516 99.2151L241.779 98.7766L222.116 110.404L222.852 110.842L242.516 99.2151Z" fill="#9FE7C1"/>
<path d="M-40.5165 332.681L-41.253 332.243L-60.9167 343.884L-60.1802 344.323L-40.5165 332.681ZM12.5964 301.265L11.8599 300.826L-40.5443 331.818L-39.8078 332.257L12.5964 301.265ZM65.7094 269.848L64.9728 269.41L12.5825 300.402L13.319 300.84L65.7094 269.848ZM118.822 238.431L118.086 237.993L65.6816 268.985L66.4181 269.424L118.822 238.431ZM171.935 207.015L171.199 206.576L118.808 237.569L119.545 238.007L171.935 207.015ZM225.048 175.598L224.312 175.16L171.907 206.152L172.644 206.591L225.048 175.598ZM278.161 144.182L277.425 143.743L225.02 174.735L225.757 175.174L278.161 144.182ZM298.534 132.13L297.797 131.692L278.133 143.319L278.87 143.757L298.534 132.13Z" fill="#9FE7C1"/>
<path d="M15.5147 365.612L14.7643 365.173L-4.89941 376.815L-4.16289 377.253L15.5008 365.612M68.6138 334.195L67.8772 333.757L15.4731 364.749L16.2096 365.187L68.6138 334.195ZM121.727 302.779L120.976 302.34L68.586 333.332L69.3225 333.771L121.713 302.779M174.826 271.362L174.075 270.924L121.671 301.916L122.422 302.354L174.826 271.362ZM227.939 239.946L227.202 239.507L174.812 270.499L175.562 270.938L227.953 239.946M281.065 208.529L280.315 208.09L227.911 239.083L228.661 239.521L281.065 208.529ZM334.178 177.112L333.428 176.674L281.024 207.666L281.774 208.105L334.178 177.112ZM354.551 165.061L353.8 164.622L334.137 176.25L334.873 176.688L354.537 165.061" fill="#9FE7C1"/>
<path d="M71.5182 398.528L70.7816 398.09L51.1179 409.731L51.8544 410.17L71.5182 398.528ZM124.631 367.112L123.895 366.673L71.4904 397.666L72.2269 398.104L124.631 367.112ZM177.744 335.695L177.008 335.257L124.617 366.249L125.354 366.687L177.744 335.695ZM230.857 304.279L230.12 303.84L177.716 334.832L178.453 335.271L230.857 304.279ZM283.97 272.862L283.233 272.424L230.843 303.416L231.58 303.854L283.97 272.862ZM337.083 241.446L336.346 241.007L283.942 271.999L284.679 272.438L337.083 241.446ZM390.196 210.029L389.459 209.591L337.055 240.583L337.792 241.021L390.196 210.029ZM410.568 197.977L409.832 197.539L390.168 209.166L390.904 209.605L410.568 197.977Z" fill="#9FE7C1"/>
<path d="M127.549 431.458L126.813 431.019L107.149 442.661L107.886 443.099L127.549 431.458ZM180.662 400.041L179.926 399.603L127.522 430.595L128.258 431.033L180.662 400.041ZM233.775 368.624L233.039 368.186L180.648 399.178L181.385 399.617L233.775 368.624ZM286.888 337.208L286.152 336.769L233.747 367.762L234.484 368.2L286.888 337.208ZM340.001 305.791L339.265 305.353L286.874 336.345L287.611 336.784L340.001 305.791ZM393.114 274.375L392.378 273.936L339.973 304.929L340.71 305.367L393.114 274.375ZM446.227 242.958L445.49 242.52L393.086 273.512L393.823 273.95L446.227 242.958ZM466.599 230.907L465.863 230.468L446.199 242.095L446.936 242.534L466.599 230.907Z" fill="#9FE7C1"/>
<path d="M183.567 464.374L182.83 463.936L163.166 475.577L163.903 476.016L183.567 464.374ZM236.679 432.958L235.943 432.519L183.539 463.511L184.275 463.95L236.679 432.958ZM289.792 401.541L289.056 401.103L236.666 432.095L237.402 432.533L289.792 401.541ZM342.905 370.124L342.169 369.686L289.765 400.678L290.501 401.117L342.905 370.124ZM396.018 338.708L395.282 338.269L342.891 369.262L343.628 369.7L396.018 338.708ZM449.131 307.291L448.395 306.853L395.99 337.845L396.727 338.284L449.131 307.291ZM502.244 275.875L501.508 275.436L449.103 306.429L449.84 306.867L502.244 275.875ZM522.617 263.823L521.88 263.385L502.216 275.012L502.953 275.45L522.617 263.823Z" fill="#9FE7C1"/>
<path d="M239.598 497.305L238.861 496.866L219.197 508.508L219.934 508.947L239.598 497.305ZM292.71 465.888L291.974 465.45L239.57 496.442L240.306 496.881L292.71 465.888ZM345.823 434.472L345.087 434.033L292.697 465.026L293.433 465.464L345.823 434.472ZM398.936 403.055L398.2 402.617L345.796 433.609L346.532 434.048L398.936 403.055ZM452.049 371.639L451.313 371.2L398.922 402.192L399.659 402.631L452.049 371.639ZM505.162 340.222L504.426 339.784L452.021 370.776L452.758 371.214L505.162 340.222ZM558.275 308.806L557.539 308.367L505.134 339.359L505.871 339.798L558.275 308.806ZM578.648 296.754L577.911 296.315L558.247 307.943L558.984 308.381L578.648 296.754Z" fill="#9FE7C1"/>
<path d="M255.398 505.762L240.293 496.879L239.57 496.455L184.275 463.963L183.539 463.525L128.258 431.033L127.522 430.609L72.2268 398.117L71.4903 397.679L16.2095 365.201L15.473 364.763L-39.8078 332.271L-40.5443 331.833L-95.8251 299.341L-96.5617 298.917L-151.856 266.425L-152.593 265.987L-207.874 233.495L-208.61 233.071L-263.905 200.579L-264.641 200.141L-279.733 191.272L-280.442 191.696L-265.336 200.565L-264.6 200.989L-209.319 233.481L-208.582 233.919L-153.288 266.411L-152.565 266.835L-97.2704 299.327L-96.5339 299.765L-41.2531 332.257L-40.5166 332.681L14.7642 365.173L15.5146 365.612L70.7954 398.103L71.5181 398.527L126.813 431.019L127.549 431.458L182.83 463.949L183.567 464.374L238.861 496.865L239.598 497.304L254.69 506.173L255.398 505.762Z" fill="#9FE7C1"/>
<path d="M308.511 474.332L293.42 465.463L292.683 465.038L237.388 432.547L236.652 432.108L181.371 399.617L180.635 399.192L125.34 366.687L124.617 366.262L69.3364 333.771L68.586 333.332L13.3052 300.855L12.5687 300.416L-42.7121 267.925L-43.4486 267.5L-98.7433 235.009L-99.4798 234.57L-154.761 202.079L-155.497 201.654L-210.778 169.163L-211.514 168.724L-226.62 159.855L-227.329 160.279L-212.237 169.148L-211.501 169.573L-156.206 202.064L-155.469 202.503L-100.189 234.994L-99.4521 235.419L-44.1574 267.925L-43.4348 268.349L11.86 300.841L12.5965 301.279L67.8773 333.756L68.6138 334.195L123.895 366.687L124.631 367.111L179.926 399.603L180.662 400.041L235.943 432.533L236.68 432.957L291.96 465.449L292.697 465.887L307.803 474.756L308.511 474.332Z" fill="#9FE7C1"/>
<path d="M361.624 442.915L346.519 434.046L345.782 433.622L290.501 401.13L289.765 400.692L234.47 368.2L233.748 367.776L178.453 335.284L177.716 334.846L122.436 302.354L121.699 301.93L66.4183 269.438L65.6818 269L10.3871 236.508L9.66441 236.084L-45.6303 203.592L-46.3668 203.154L-101.648 170.662L-102.384 170.238L-157.679 137.746L-158.415 137.308L-173.507 128.439L-174.216 128.863L-159.124 137.732L-158.388 138.17L-103.107 170.662L-102.37 171.086L-47.0755 203.578L-46.339 204.017L8.9418 236.508L9.67831 236.932L64.973 269.424L65.7095 269.863L120.976 302.34L121.727 302.779L177.008 335.27L177.744 335.694L233.025 368.186L233.762 368.625L289.056 401.116L289.793 401.54L345.074 434.032L345.81 434.471L360.902 443.34L361.624 442.915Z" fill="#9FE7C1"/>
<path d="M414.737 411.499L399.645 402.63L398.909 402.191L343.614 369.7L342.878 369.275L287.597 336.784L286.86 336.345L231.565 303.854L230.829 303.429L175.562 270.938L174.812 270.499L119.531 238.022L118.794 237.583L63.5135 205.092L62.777 204.667L7.48228 172.176L6.74577 171.737L-48.5351 139.246L-49.2716 138.807L-104.566 106.315L-105.289 105.891L-120.395 97.0221L-121.103 97.4464L-106.012 106.315L-105.275 106.74L-49.9803 139.231L-49.2438 139.67L6.03703 172.162L6.77354 172.586L62.0683 205.077L62.7909 205.516L118.086 238.008L118.822 238.432L174.103 270.923L174.839 271.362L230.12 303.854L230.857 304.278L286.151 336.77L286.874 337.208L342.169 369.7L342.905 370.124L398.186 402.616L398.923 403.054L414.028 411.923L414.737 411.499Z" fill="#9FE7C1"/>
<path d="M467.836 380.082L452.745 371.213L452.008 370.789L396.727 338.297L395.991 337.859L340.696 305.367L339.973 304.929L284.679 272.437L283.942 272.013L228.661 239.521L227.925 239.083L172.644 206.605L171.908 206.167L116.613 173.675L115.876 173.251L60.5956 140.759L59.859 140.321L4.56434 107.829L3.84173 107.405L-51.453 74.9131L-52.1895 74.4746L-67.2812 65.6056L-67.99 66.0299L-52.8982 74.899L-52.1617 75.3234L3.11907 107.815L3.85559 108.253L59.1503 140.745L59.8868 141.169L115.168 173.661L115.904 174.099L171.199 206.591L171.921 207.03L227.202 239.507L227.953 239.946L283.233 272.437L283.97 272.861L339.251 305.353L339.987 305.792L395.282 338.283L396.005 338.707L451.299 371.199L452.036 371.638L467.128 380.507L467.836 380.082Z" fill="#9FE7C1"/>
<path d="M520.949 348.666L505.857 339.797L505.121 339.372L449.826 306.881L449.103 306.442L393.809 273.951L393.072 273.526L337.791 241.035L337.055 240.596L281.774 208.105L281.024 207.666L225.743 175.189L225.02 174.75L169.725 142.259L168.989 141.834L113.708 109.343L112.972 108.904L57.6769 76.4126L56.9404 75.9882L1.65956 43.4966L0.923044 43.0581L-14.1687 34.1891L-14.8774 34.5993L0.214302 43.4825L0.950822 43.9068L56.2455 76.3984L56.9681 76.8369L112.263 109.329L112.999 109.753L168.28 142.244L169.017 142.683L224.311 175.175L225.048 175.599L280.329 208.09L281.065 208.529L336.346 241.006L337.083 241.445L392.363 273.937L393.1 274.375L448.395 306.867L449.131 307.291L504.412 339.783L505.148 340.221L520.24 349.09L520.949 348.666Z" fill="#9FE7C1"/>
<path d="M574.062 317.249L558.97 308.38L558.234 307.942L502.953 275.45L502.217 275.026L446.922 242.534L446.185 242.096L390.905 209.604L390.168 209.18L334.887 176.688L334.151 176.25L278.87 143.772L278.133 143.334L222.839 110.842L222.102 110.404L166.821 77.912L166.085 77.4877L110.79 44.9961L110.067 44.5576L54.7728 12.066L54.0363 11.6416L38.9445 2.77256L38.2358 3.19692L53.3276 12.066L54.0641 12.4903L109.345 44.9819L110.081 45.4204L165.376 77.912L166.113 78.3364L221.393 110.828L222.13 111.266L277.411 143.758L278.147 144.182L333.428 176.674L334.178 177.113L389.459 209.604L390.196 210.028L445.477 242.52L446.213 242.959L501.508 275.45L502.23 275.874L557.525 308.366L558.262 308.805L573.353 317.674L574.062 317.249Z" fill="#9FE7C1"/>
</svg>
