<svg width="80" height="80" viewBox="0 0 80 80" fill="none" xmlns="http://www.w3.org/2000/svg">
<g id="vuesax/bold/login">
<g id="login">
<path id="Vector" d="M56 6.66666H47.3333C36.6667 6.66666 30 13.3333 30 24V37.5H44.8L37.9 30.6C37.4 30.1 37.1667 29.4667 37.1667 28.8333C37.1667 28.2 37.4 27.5667 37.9 27.0667C38.8667 26.1 40.4667 26.1 41.4333 27.0667L52.6 38.2333C53.5667 39.2 53.5667 40.8 52.6 41.7667L41.4333 52.9333C40.4667 53.9 38.8667 53.9 37.9 52.9333C36.9333 51.9667 36.9333 50.3667 37.9 49.4L44.8 42.5H30V56C30 66.6667 36.6667 73.3333 47.3333 73.3333H55.9667C66.6333 73.3333 73.3 66.6667 73.3 56V24C73.3333 13.3333 66.6667 6.66666 56 6.66666Z" fill="white"/>
<path id="Vector_2" d="M9.16675 37.5C7.80008 37.5 6.66675 38.6333 6.66675 40C6.66675 41.3667 7.80008 42.5 9.16675 42.5H30.0001V37.5H9.16675Z" fill="white"/>
</g>
</g>
</svg>
