<svg width="80" height="80" viewBox="0 0 80 80" fill="none" xmlns="http://www.w3.org/2000/svg">
<g id="vuesax/bold/logout">
<g id="logout">
<path id="Vector" d="M56 6.66666H47.3333C36.6667 6.66666 30 13.3333 30 24V37.5H50.8333C52.2 37.5 53.3333 38.6333 53.3333 40C53.3333 41.3667 52.2 42.5 50.8333 42.5H30V56C30 66.6667 36.6667 73.3333 47.3333 73.3333H55.9667C66.6333 73.3333 73.3 66.6667 73.3 56V24C73.3333 13.3333 66.6667 6.66666 56 6.66666Z" fill="white"/>
<path id="Vector_2" d="M15.2 37.5L22.1 30.6C22.6 30.1 22.8334 29.4667 22.8334 28.8333C22.8334 28.2 22.6 27.5333 22.1 27.0667C21.1334 26.1 19.5334 26.1 18.5667 27.0667L7.40005 38.2333C6.43338 39.2 6.43338 40.8 7.40005 41.7667L18.5667 52.9333C19.5334 53.9 21.1334 53.9 22.1 52.9333C23.0667 51.9667 23.0667 50.3667 22.1 49.4L15.2 42.5H30V37.5H15.2Z" fill="white"/>
</g>
</g>
</svg>
