<svg width="40" height="40" viewBox="0 0 40 40" fill="none" xmlns="http://www.w3.org/2000/svg">
<g id="vuesax/bold/people">
<g id="people">
<path id="Vector" d="M29.2167 12.95C29.1001 12.9333 28.9834 12.9333 28.8667 12.95C26.2834 12.8667 24.2334 10.75 24.2334 8.15C24.2334 5.5 26.3834 3.33334 29.0501 3.33334C31.7001 3.33334 33.8667 5.48334 33.8667 8.15C33.8501 10.75 31.8001 12.8667 29.2167 12.95Z" fill="white"/>
<path id="Vector_2" d="M34.6501 24.5C32.7834 25.75 30.1667 26.2167 27.7501 25.9C28.3834 24.5333 28.7167 23.0167 28.7334 21.4167C28.7334 19.75 28.3667 18.1667 27.6667 16.7833C30.1334 16.45 32.7501 16.9167 34.6334 18.1667C37.2667 19.9 37.2667 22.75 34.6501 24.5Z" fill="white"/>
<path id="Vector_3" d="M10.7334 12.95C10.8501 12.9333 10.9668 12.9333 11.0834 12.95C13.6668 12.8667 15.7168 10.75 15.7168 8.15C15.7168 5.48334 13.5668 3.33334 10.9001 3.33334C8.2501 3.33334 6.1001 5.48334 6.1001 8.15C6.1001 10.75 8.1501 12.8667 10.7334 12.95Z" fill="white"/>
<path id="Vector_4" d="M10.9166 21.4167C10.9166 23.0333 11.2666 24.5667 11.9 25.95C9.54995 26.2 7.09995 25.7 5.29995 24.5167C2.66662 22.7667 2.66662 19.9167 5.29995 18.1667C7.08329 16.9667 9.59995 16.4833 11.9666 16.75C11.2833 18.15 10.9166 19.7333 10.9166 21.4167Z" fill="white"/>
<path id="Vector_5" d="M20.2 26.45C20.0667 26.4333 19.9167 26.4333 19.7667 26.45C16.7 26.35 14.25 23.8333 14.25 20.7333C14.2667 17.5667 16.8167 15 20 15C23.1667 15 25.7333 17.5667 25.7333 20.7333C25.7167 23.8333 23.2833 26.35 20.2 26.45Z" fill="white"/>
<path id="Vector_6" d="M14.7833 29.9C12.2666 31.5833 12.2666 34.35 14.7833 36.0167C17.6499 37.9333 22.3499 37.9333 25.2166 36.0167C27.7333 34.3333 27.7333 31.5667 25.2166 29.9C22.3666 27.9833 17.6666 27.9833 14.7833 29.9Z" fill="white"/>
</g>
</g>
</svg>
