<svg width="40" height="40" viewBox="0 0 40 40" fill="none" xmlns="http://www.w3.org/2000/svg">
<g id="vuesax/bold/shopping-cart">
<g id="shopping-cart">
<path id="Vector" d="M27.0834 37.5C28.6942 37.5 30.0001 36.1942 30.0001 34.5833C30.0001 32.9725 28.6942 31.6667 27.0834 31.6667C25.4726 31.6667 24.1667 32.9725 24.1667 34.5833C24.1667 36.1942 25.4726 37.5 27.0834 37.5Z" fill="white"/>
<path id="Vector_2" d="M13.7499 37.5C15.3607 37.5 16.6666 36.1942 16.6666 34.5833C16.6666 32.9725 15.3607 31.6667 13.7499 31.6667C12.1391 31.6667 10.8333 32.9725 10.8333 34.5833C10.8333 36.1942 12.1391 37.5 13.7499 37.5Z" fill="white"/>
<path id="Vector_3" d="M8.06659 6.56666L7.73325 10.65C7.66659 11.4333 8.28325 12.0833 9.06659 12.0833H34.5833C35.2833 12.0833 35.8666 11.55 35.9166 10.85C36.1333 7.9 33.8833 5.49999 30.9333 5.49999H10.4499C10.2833 4.76666 9.94992 4.06666 9.43325 3.48333C8.59992 2.59999 7.43325 2.08333 6.23325 2.08333H3.33325C2.64992 2.08333 2.08325 2.64999 2.08325 3.33333C2.08325 4.01666 2.64992 4.58333 3.33325 4.58333H6.23325C6.74992 4.58333 7.23325 4.79999 7.58325 5.16666C7.93325 5.54999 8.09992 6.04999 8.06659 6.56666Z" fill="white"/>
<path id="Vector_4" d="M34.1833 14.5833H8.61659C7.91659 14.5833 7.34993 15.1167 7.28326 15.8L6.68326 23.05C6.44993 25.9 8.68326 28.3333 11.5333 28.3333H30.0666C32.5666 28.3333 34.7666 26.2833 34.9499 23.7833L35.4999 16C35.5666 15.2333 34.9666 14.5833 34.1833 14.5833Z" fill="white"/>
</g>
</g>
</svg>
