<svg width="80" height="80" viewBox="0 0 80 80" fill="none" xmlns="http://www.w3.org/2000/svg">
<g id="vuesax/linear/ticket-discount">
<g id="ticket-discount">
<path id="Vector" d="M65.0001 41.6667C65.0001 37.0667 68.7334 33.3333 73.3334 33.3333V30C73.3334 16.6667 70.0001 13.3333 56.6668 13.3333H23.3334C10.0001 13.3333 6.66675 16.6667 6.66675 30V31.6667C11.2667 31.6667 15.0001 35.4 15.0001 40C15.0001 44.6 11.2667 48.3333 6.66675 48.3333V50C6.66675 63.3333 10.0001 66.6667 23.3334 66.6667H56.6668C70.0001 66.6667 73.3334 63.3333 73.3334 50C68.7334 50 65.0001 46.2667 65.0001 41.6667Z" fill="white"/>
<g id="Vector_2">
<path d="M30 49.1667L50 29.1667L30 49.1667Z" fill="#1CAB62"/>
<path d="M30 49.1667L50 29.1667" stroke="#CBDCD3" stroke-width="5" stroke-linecap="round" stroke-linejoin="round"/>
</g>
<g id="Vector_3">
<path fill-rule="evenodd" clip-rule="evenodd" d="M49.9816 49.1667H50.0115H49.9816Z" fill="#1CAB62"/>
<path d="M49.9816 49.1667H50.0115" stroke="#CADDD2" stroke-width="5" stroke-linecap="round" stroke-linejoin="round"/>
</g>
<g id="Vector_4">
<path fill-rule="evenodd" clip-rule="evenodd" d="M29.9816 30.8333H30.0115H29.9816Z" fill="#1CAB62"/>
<path d="M29.9816 30.8333H30.0115" stroke="#CADDD2" stroke-width="5" stroke-linecap="round" stroke-linejoin="round"/>
</g>
</g>
</g>
</svg>
